M48
;DRILL file {KiCad 4.0.2-stable} date 7/4/2016 11:44:13 PM
;FORMAT={-:-/ absolute / inch / decimal}
FMAT,2
INCH,TZ
T1C0.028
T2C0.040
T3C0.047
T4C0.138
%
G90
G05
M72
T1
X5.287Y-3.5095
X5.288Y-3.4615
X5.289Y-3.1236
X5.2895Y-3.417
X5.505Y-3.3665
X5.5904Y-3.7018
X5.605Y-3.4365
X5.645Y-3.1165
X5.75Y-3.8565
X5.805Y-3.8565
X5.865Y-3.1665
X5.905Y-3.8565
X5.954Y-3.858
X5.965Y-3.1865
X6.025Y-2.9775
X6.025Y-3.0365
X6.224Y-3.732
X6.226Y-3.777
X6.296Y-3.857
X6.2965Y-2.9775
X6.297Y-3.0345
X6.342Y-3.857
X6.386Y-3.858
T2
X5.29Y-3.7795
X5.39Y-3.7795
X5.49Y-3.7795
X5.515Y-2.8605
X5.59Y-3.7795
X5.615Y-2.8605
X5.715Y-2.8605
X5.815Y-2.8605
T3
X6.7296Y-2.84
X6.7296Y-3.2534
X6.73Y-3.1156
X6.7328Y-2.9778
T4
X5.126Y-2.8731
X5.126Y-3.8315
X6.5Y-2.88
X6.7822Y-3.8303
T0
M30
