G04 #@! TF.FileFunction,Copper,L1,Top,Signal*
%FSLAX46Y46*%
G04 Gerber Fmt 4.6, Leading zero omitted, Abs format (unit mm)*
G04 Created by KiCad (PCBNEW 4.0.2-stable) date 7/4/2016 11:44:18 PM*
%MOMM*%
G01*
G04 APERTURE LIST*
%ADD10C,0.100000*%
%ADD11C,3.500000*%
%ADD12R,1.800000X0.450000*%
%ADD13R,1.727200X2.032000*%
%ADD14O,1.727200X2.032000*%
%ADD15R,1.300000X1.500000*%
%ADD16R,2.400300X4.000500*%
%ADD17R,1.250000X1.500000*%
%ADD18R,3.599180X1.600200*%
%ADD19R,1.500000X1.250000*%
%ADD20R,2.700020X1.501140*%
%ADD21R,1.198880X1.400000*%
%ADD22R,2.500000X2.000000*%
%ADD23R,1.500000X4.000000*%
%ADD24R,1.500000X1.300000*%
%ADD25R,1.800000X0.600000*%
%ADD26R,2.000000X1.700000*%
%ADD27R,2.600000X2.000000*%
%ADD28O,2.600000X2.000000*%
%ADD29C,1.100000*%
%ADD30C,0.700000*%
%ADD31C,1.300000*%
%ADD32C,1.100000*%
%ADD33C,0.350000*%
%ADD34C,0.300000*%
%ADD35C,0.450000*%
%ADD36C,0.600000*%
%ADD37C,0.400000*%
G04 APERTURE END LIST*
D10*
D11*
X165100000Y-73152000D03*
X172267880Y-97289620D03*
X130200400Y-97320100D03*
D12*
X146993400Y-83049300D03*
X146993400Y-82399300D03*
X146993400Y-81749300D03*
X146993400Y-81099300D03*
X146993400Y-80449300D03*
X146993400Y-79799300D03*
X146993400Y-79149300D03*
X146993400Y-78499300D03*
X146993400Y-77849300D03*
X146993400Y-77199300D03*
X141093400Y-77199300D03*
X141093400Y-77849300D03*
X141093400Y-78499300D03*
X141093400Y-79149300D03*
X141093400Y-79799300D03*
X141093400Y-80449300D03*
X141093400Y-81099300D03*
X141093400Y-81749300D03*
X141093400Y-82399300D03*
X141093400Y-83049300D03*
D13*
X147701000Y-72656700D03*
D14*
X145161000Y-72656700D03*
X142621000Y-72656700D03*
X140081000Y-72656700D03*
D15*
X153441400Y-97704900D03*
X153441400Y-95004900D03*
X155956000Y-94979500D03*
X155956000Y-97679500D03*
D16*
X164185600Y-88963500D03*
X164185600Y-96964500D03*
D17*
X159791400Y-75633900D03*
X159791400Y-73133900D03*
X155371800Y-75613900D03*
X155371800Y-73113900D03*
X153136600Y-73164700D03*
X153136600Y-75664700D03*
X150926800Y-75730100D03*
X150926800Y-73230100D03*
X150825200Y-95054100D03*
X150825200Y-97554100D03*
D18*
X140342620Y-90106500D03*
X134840980Y-90106500D03*
D19*
X136962200Y-81699100D03*
X134462200Y-81699100D03*
D20*
X146075400Y-92659200D03*
X146075400Y-97459800D03*
D21*
X134366000Y-72242680D03*
X134366000Y-74340720D03*
X136956800Y-72217280D03*
X136956800Y-74315320D03*
D22*
X172135800Y-86438000D03*
X172135800Y-89838000D03*
D23*
X145110200Y-88150700D03*
X148361400Y-88150700D03*
D13*
X141986000Y-95999300D03*
D14*
X139446000Y-95999300D03*
X136906000Y-95999300D03*
X134366000Y-95999300D03*
D15*
X157530800Y-75661500D03*
X157530800Y-72961500D03*
X134340600Y-79340700D03*
X134340600Y-76640700D03*
D24*
X134451100Y-83934300D03*
X137151100Y-83934300D03*
D15*
X136982200Y-79391500D03*
X136982200Y-76691500D03*
D25*
X153103600Y-79159100D03*
X153103600Y-80429100D03*
X153103600Y-81699100D03*
X153103600Y-82969100D03*
X158503600Y-82969100D03*
X158503600Y-81699100D03*
X158503600Y-80429100D03*
X158503600Y-79159100D03*
X151478000Y-87960200D03*
X151478000Y-89230200D03*
X151478000Y-90500200D03*
X151478000Y-91770200D03*
X156878000Y-91770200D03*
X156878000Y-90500200D03*
X156878000Y-89230200D03*
X156878000Y-87960200D03*
D11*
X130200400Y-72976740D03*
D26*
X153067000Y-85369400D03*
X157067000Y-85369400D03*
D27*
X170932000Y-82636000D03*
D28*
X170942000Y-79136000D03*
X171012000Y-75636000D03*
X170932000Y-72136000D03*
D29*
X151231600Y-97993200D03*
X146050000Y-97955100D03*
X159918400Y-97967800D03*
X162204400Y-97993200D03*
X161086800Y-97967800D03*
X153035000Y-75628500D03*
X153035000Y-77127100D03*
X159943800Y-77076300D03*
X159931400Y-75628500D03*
X149987000Y-97955100D03*
X147447000Y-97955100D03*
X134353300Y-86791800D03*
X134289800Y-89141300D03*
X134315200Y-87922100D03*
X134340600Y-79340700D03*
X141996160Y-94025720D03*
X158089600Y-94792800D03*
X158140400Y-95935800D03*
X151511000Y-80937100D03*
X143383000Y-79159100D03*
X142367000Y-87287100D03*
X148971000Y-80429100D03*
X139827000Y-85509100D03*
D30*
X151478000Y-87960200D02*
X152857200Y-87960200D01*
X152857200Y-87960200D02*
X153060400Y-87757000D01*
X153060400Y-87757000D02*
X153060400Y-85376000D01*
X153060400Y-85376000D02*
X153067000Y-85369400D01*
X156878000Y-89230200D02*
X156878000Y-87960200D01*
X156878000Y-87960200D02*
X151478000Y-87960200D01*
D31*
X164185600Y-88963500D02*
X164185600Y-89824560D01*
X171145200Y-90319860D02*
X171627060Y-89838000D01*
X164185600Y-89824560D02*
X164680900Y-90319860D01*
X164680900Y-90319860D02*
X171145200Y-90319860D01*
X171627060Y-89838000D02*
X172135800Y-89838000D01*
X157067000Y-85369400D02*
X160591500Y-85369400D01*
X160591500Y-85369400D02*
X164185600Y-88963500D01*
X172094420Y-89458800D02*
X165018720Y-89458800D01*
X165060100Y-89838000D02*
X164185600Y-88963500D01*
D30*
X156878000Y-90500200D02*
X162648900Y-90500200D01*
X162648900Y-90500200D02*
X164185600Y-88963500D01*
D32*
X164780700Y-89558600D02*
X164185600Y-88963500D01*
X164185600Y-89128600D02*
X164045900Y-89268300D01*
D30*
X151478000Y-91770200D02*
X150157180Y-91770200D01*
X150157180Y-91770200D02*
X148717000Y-93210380D01*
X148717000Y-93210380D02*
X148717000Y-97554100D01*
D33*
X155371800Y-73362820D02*
X155338780Y-73362820D01*
X155338780Y-73362820D02*
X153136600Y-75565000D01*
X153136600Y-75565000D02*
X153136600Y-75598020D01*
D32*
X159943800Y-77076300D02*
X159943800Y-75640900D01*
X159943800Y-75640900D02*
X159931400Y-75628500D01*
X153035000Y-77127100D02*
X153035000Y-75628500D01*
X147447000Y-97955100D02*
X146050000Y-97955100D01*
X149987000Y-97955100D02*
X151193500Y-97955100D01*
X151193500Y-97955100D02*
X151231600Y-97993200D01*
X149987000Y-97955100D02*
X150424200Y-97955100D01*
X150424200Y-97955100D02*
X150825200Y-97554100D01*
D30*
X158503600Y-82969100D02*
X170598900Y-82969100D01*
X170598900Y-82969100D02*
X170932000Y-82636000D01*
D32*
X161086800Y-97967800D02*
X159918400Y-97967800D01*
X161086800Y-97967800D02*
X163182300Y-97967800D01*
X163182300Y-97967800D02*
X164185600Y-96964500D01*
D34*
X155371800Y-73113900D02*
X155371800Y-73362820D01*
X153136600Y-75598020D02*
X153136600Y-75664700D01*
D30*
X134340600Y-79340700D02*
X134340600Y-81577500D01*
X134340600Y-81577500D02*
X134462200Y-81699100D01*
D32*
X136906000Y-95999300D02*
X136906000Y-91617800D01*
X136906000Y-91617800D02*
X135293100Y-90004900D01*
X135293100Y-90004900D02*
X134942580Y-90004900D01*
X134942580Y-90004900D02*
X134840980Y-90106500D01*
X146075400Y-97459800D02*
X146951700Y-97459800D01*
X146951700Y-97459800D02*
X147447000Y-97955100D01*
X134353300Y-86791800D02*
X134353300Y-87884000D01*
X134353300Y-87884000D02*
X134315200Y-87922100D01*
X134315200Y-87922100D02*
X134315200Y-89580720D01*
X134315200Y-89580720D02*
X134840980Y-90106500D01*
D30*
X134340600Y-79340700D02*
X134603800Y-79340700D01*
D33*
X146993400Y-79149300D02*
X148066400Y-79149300D01*
X148066400Y-79149300D02*
X148116390Y-79099310D01*
X148116390Y-79099310D02*
X149826990Y-79099310D01*
X149826990Y-79099310D02*
X153136600Y-75789700D01*
X153136600Y-75789700D02*
X153136600Y-75664700D01*
D30*
X136156700Y-90106500D02*
X134840980Y-90106500D01*
D32*
X150825200Y-97554100D02*
X148717000Y-97554100D01*
X148717000Y-97554100D02*
X146169700Y-97554100D01*
X146169700Y-97554100D02*
X146075400Y-97459800D01*
X147022500Y-97554100D02*
X146862800Y-97713800D01*
X153441400Y-97704900D02*
X150976000Y-97704900D01*
X150976000Y-97704900D02*
X150825200Y-97554100D01*
D34*
X150926800Y-73230100D02*
X150926800Y-73355100D01*
D33*
X150926800Y-73355100D02*
X153136600Y-75564900D01*
D34*
X153136600Y-75564900D02*
X153136600Y-75664700D01*
X140081000Y-72504300D02*
X140081000Y-72656700D01*
D30*
X156878000Y-91770200D02*
X156878000Y-94057500D01*
X156878000Y-94057500D02*
X155956000Y-94979500D01*
D32*
X153441400Y-95004900D02*
X155930600Y-95004900D01*
X155930600Y-95004900D02*
X155956000Y-94979500D01*
X155956000Y-97679500D02*
X156808180Y-97679500D01*
X156808180Y-97679500D02*
X158140400Y-96347280D01*
X158140400Y-96347280D02*
X158140400Y-95935800D01*
D30*
X153136600Y-73164700D02*
X153136600Y-71501000D01*
X148130260Y-71097140D02*
X147713700Y-71513700D01*
X147713700Y-72644000D02*
X147701000Y-72656700D01*
X153136600Y-71501000D02*
X152732740Y-71097140D01*
X152732740Y-71097140D02*
X148130260Y-71097140D01*
X147713700Y-71513700D02*
X147713700Y-72644000D01*
X153136600Y-73164700D02*
X153136600Y-71577200D01*
X153136600Y-71577200D02*
X153619200Y-71094600D01*
X153619200Y-71094600D02*
X160972500Y-71094600D01*
X160972500Y-71094600D02*
X161925000Y-72047100D01*
X161925000Y-72047100D02*
X161925000Y-77177900D01*
X161925000Y-77177900D02*
X159943800Y-79159100D01*
X159943800Y-79159100D02*
X158503600Y-79159100D01*
D32*
X158137860Y-94802960D02*
X158137860Y-95895160D01*
X158089600Y-95885000D02*
X158140400Y-95935800D01*
D30*
X136956800Y-72217280D02*
X137218420Y-72217280D01*
X137218420Y-72217280D02*
X138468100Y-70967600D01*
X138468100Y-70967600D02*
X147218400Y-70967600D01*
X147218400Y-70967600D02*
X147701000Y-71450200D01*
X147701000Y-71450200D02*
X147701000Y-72656700D01*
X134366000Y-72242680D02*
X134056120Y-72242680D01*
X134056120Y-72242680D02*
X132791200Y-73507600D01*
X132791200Y-73507600D02*
X132791200Y-82600800D01*
X134124700Y-83934300D02*
X134451100Y-83934300D01*
X132791200Y-82600800D02*
X134124700Y-83934300D01*
D32*
X141986000Y-95999300D02*
X141986000Y-90538300D01*
X141986000Y-90538300D02*
X142011400Y-90512900D01*
X142011400Y-90512900D02*
X141947900Y-90449400D01*
X141947900Y-90449400D02*
X140685520Y-90449400D01*
X140685520Y-90449400D02*
X140342620Y-90106500D01*
D30*
X140342620Y-90106500D02*
X139814300Y-90106500D01*
X139814300Y-90106500D02*
X134451100Y-84743300D01*
X134451100Y-84743300D02*
X134451100Y-83934300D01*
D33*
X146993400Y-77849300D02*
X148243400Y-77849300D01*
X148243400Y-77849300D02*
X148564600Y-77528100D01*
X148564600Y-77528100D02*
X148564600Y-73672700D01*
X148564600Y-73672700D02*
X147701000Y-72809100D01*
X147701000Y-72809100D02*
X147701000Y-72656700D01*
D34*
X147701000Y-72656700D02*
X147840700Y-72656700D01*
X147027900Y-77851000D02*
X147026200Y-77849300D01*
X147026200Y-77849300D02*
X146993400Y-77849300D01*
D30*
X136956800Y-72217280D02*
X134391400Y-72217280D01*
X134391400Y-72217280D02*
X134366000Y-72242680D01*
D32*
X145110200Y-88150700D02*
X143192500Y-90068400D01*
X143192500Y-90068400D02*
X140380720Y-90068400D01*
X140380720Y-90068400D02*
X140342620Y-90106500D01*
D34*
X141986000Y-96151700D02*
X141986000Y-95999300D01*
D32*
X170932000Y-72136000D02*
X172262800Y-72136000D01*
X172262800Y-72136000D02*
X174091600Y-73964800D01*
X174091600Y-73964800D02*
X174091600Y-84732200D01*
X174091600Y-84732200D02*
X172385800Y-86438000D01*
X172385800Y-86438000D02*
X172135800Y-86438000D01*
D33*
X159791400Y-73195180D02*
X159791400Y-73212960D01*
X159791400Y-73212960D02*
X157548580Y-75455780D01*
X157548580Y-75455780D02*
X157530800Y-75455780D01*
D30*
X158503600Y-80429100D02*
X163664900Y-80429100D01*
X163664900Y-80429100D02*
X168458000Y-75636000D01*
X168458000Y-75636000D02*
X171012000Y-75636000D01*
D35*
X159791400Y-73133900D02*
X159791400Y-73195180D01*
X157530800Y-75455780D02*
X157530800Y-75661500D01*
X157530800Y-75661500D02*
X157530800Y-75857100D01*
X157530800Y-75857100D02*
X156806900Y-76581000D01*
X156806900Y-76581000D02*
X156806900Y-80082400D01*
X156806900Y-80082400D02*
X157153600Y-80429100D01*
X157153600Y-80429100D02*
X158503600Y-80429100D01*
D33*
X157530800Y-73383140D02*
X157482540Y-73383140D01*
X157482540Y-73383140D02*
X155371800Y-75493880D01*
X155371800Y-75493880D02*
X155371800Y-75542140D01*
D30*
X170942000Y-79136000D02*
X168942000Y-79136000D01*
X168942000Y-79136000D02*
X166378900Y-81699100D01*
X166378900Y-81699100D02*
X162902900Y-81699100D01*
X158503600Y-81699100D02*
X162902900Y-81699100D01*
D35*
X157530800Y-72961500D02*
X157530800Y-73383140D01*
X155371800Y-75542140D02*
X155371800Y-75613900D01*
X155371800Y-75613900D02*
X155371800Y-80137000D01*
X155371800Y-80137000D02*
X156933900Y-81699100D01*
X156933900Y-81699100D02*
X158503600Y-81699100D01*
D33*
X146993400Y-78499300D02*
X149257600Y-78499300D01*
X149257600Y-78499300D02*
X150926800Y-76830100D01*
X150926800Y-76830100D02*
X150926800Y-75730100D01*
D34*
X150926800Y-75730100D02*
X150926800Y-76238100D01*
D30*
X151478000Y-90500200D02*
X153078000Y-90500200D01*
X153078000Y-90500200D02*
X153695400Y-91117600D01*
X153695400Y-91117600D02*
X153695400Y-92183900D01*
X153695400Y-92183900D02*
X152658760Y-93220540D01*
X152658760Y-93220540D02*
X150825200Y-95054100D01*
D36*
X150825200Y-95034100D02*
X150825200Y-95054100D01*
D30*
X151478000Y-89230200D02*
X148666200Y-89230200D01*
X148666200Y-89230200D02*
X148488400Y-89052400D01*
X148488400Y-89052400D02*
X148488400Y-88277700D01*
X148488400Y-88277700D02*
X148361400Y-88150700D01*
X148539200Y-87972900D02*
X148361400Y-88150700D01*
D32*
X148361400Y-88150700D02*
X148361400Y-90373200D01*
X148361400Y-90373200D02*
X146075400Y-92659200D01*
D30*
X134366000Y-74340720D02*
X134366000Y-76615300D01*
X134366000Y-76615300D02*
X134340600Y-76640700D01*
X136956800Y-74315320D02*
X136956800Y-76666100D01*
X136956800Y-76666100D02*
X136982200Y-76691500D01*
D37*
X144538700Y-73240900D02*
X144538700Y-73609200D01*
X146037300Y-83074301D02*
X146993400Y-83074301D01*
D33*
X144538700Y-73609200D02*
X144538700Y-81844600D01*
X144538700Y-81844600D02*
X145768401Y-83074301D01*
X145768401Y-83074301D02*
X146037300Y-83074301D01*
D37*
X145161000Y-72656700D02*
X145122900Y-72656700D01*
X145122900Y-72656700D02*
X144538700Y-73240900D01*
D33*
X153103600Y-82969100D02*
X150736300Y-82969100D01*
X146993400Y-82399300D02*
X150166500Y-82399300D01*
X150166500Y-82399300D02*
X150736300Y-82969100D01*
X153103600Y-79159100D02*
X151684002Y-79159100D01*
X146993400Y-81749300D02*
X149093802Y-81749300D01*
X149093802Y-81749300D02*
X151684002Y-79159100D01*
X151684002Y-79159100D02*
X151903600Y-79159100D01*
D34*
X153103600Y-79159100D02*
X151903600Y-79159100D01*
X142621000Y-72656700D02*
X142621000Y-73177400D01*
X142621000Y-73177400D02*
X141093400Y-74705000D01*
X141093400Y-74705000D02*
X141093400Y-77199300D01*
D37*
X142621000Y-72656700D02*
X142621000Y-73152000D01*
X142621000Y-73152000D02*
X142633700Y-73164700D01*
X142633700Y-73164700D02*
X141093400Y-74705000D01*
X141093400Y-74705000D02*
X141093400Y-77174299D01*
D30*
X153103600Y-80429100D02*
X153103600Y-80937100D01*
X153103600Y-80937100D02*
X153103600Y-81699100D01*
D34*
X151511000Y-80937100D02*
X153103600Y-80937100D01*
X141093400Y-79149300D02*
X143373200Y-79149300D01*
X143373200Y-79149300D02*
X143383000Y-79159100D01*
D33*
X141093400Y-81749300D02*
X142239400Y-81749300D01*
X142239400Y-81749300D02*
X142557500Y-82067400D01*
X142557500Y-82067400D02*
X142557500Y-87096600D01*
X142557500Y-87096600D02*
X142367000Y-87287100D01*
D34*
X142621000Y-87287100D02*
X142367000Y-87287100D01*
D30*
X136962200Y-81699100D02*
X136962200Y-83745400D01*
X136962200Y-83745400D02*
X137151100Y-83934300D01*
D34*
X146993400Y-81099300D02*
X147904200Y-81099300D01*
D33*
X148971000Y-80429100D02*
X148300799Y-81099301D01*
X147904201Y-81099301D02*
X147904200Y-81099300D01*
X148300799Y-81099301D02*
X147904201Y-81099301D01*
D32*
X139827000Y-85509100D02*
X138725900Y-85509100D01*
X138725900Y-85509100D02*
X137151100Y-83934300D01*
D30*
X136931102Y-83934300D02*
X137151100Y-83934300D01*
D33*
X138220700Y-79476600D02*
X138135600Y-79391500D01*
X138135600Y-79391500D02*
X136982200Y-79391500D01*
X141093400Y-81099300D02*
X139843400Y-81099300D01*
X139843400Y-81099300D02*
X138220700Y-79476600D01*
D34*
X136982200Y-79391500D02*
X137932200Y-79391500D01*
G36*
X174031700Y-95648118D02*
X173633684Y-95249407D01*
X172748962Y-94882038D01*
X171791000Y-94881202D01*
X170905639Y-95247026D01*
X170227667Y-95923816D01*
X169860298Y-96808538D01*
X169859462Y-97766500D01*
X170225286Y-98651861D01*
X170610951Y-99038200D01*
X166043750Y-99038200D01*
X166043750Y-97233000D01*
X165879250Y-97068500D01*
X164289600Y-97068500D01*
X164289600Y-97088500D01*
X164081600Y-97088500D01*
X164081600Y-97068500D01*
X162491950Y-97068500D01*
X162327450Y-97233000D01*
X162327450Y-99038200D01*
X156875183Y-99038200D01*
X157073792Y-98910399D01*
X157133677Y-98822754D01*
X157270462Y-98795546D01*
X157662365Y-98533685D01*
X158994585Y-97201465D01*
X159256447Y-96809561D01*
X159348400Y-96347280D01*
X159348400Y-95935800D01*
X159348609Y-95696568D01*
X159345860Y-95689915D01*
X159345860Y-94833366D01*
X162327450Y-94833366D01*
X162327450Y-96696000D01*
X162491950Y-96860500D01*
X164081600Y-96860500D01*
X164081600Y-94470750D01*
X164289600Y-94470750D01*
X164289600Y-96860500D01*
X165879250Y-96860500D01*
X166043750Y-96696000D01*
X166043750Y-94833366D01*
X165943576Y-94591523D01*
X165758477Y-94406425D01*
X165516635Y-94306250D01*
X164454100Y-94306250D01*
X164289600Y-94470750D01*
X164081600Y-94470750D01*
X163917100Y-94306250D01*
X162854565Y-94306250D01*
X162612723Y-94406425D01*
X162427624Y-94591523D01*
X162327450Y-94833366D01*
X159345860Y-94833366D01*
X159345860Y-94802960D01*
X159297802Y-94561358D01*
X159297809Y-94553568D01*
X159294808Y-94546305D01*
X159253906Y-94340678D01*
X159138447Y-94167881D01*
X159114290Y-94109417D01*
X159069205Y-94064254D01*
X158992045Y-93948775D01*
X158877573Y-93872287D01*
X158774770Y-93769305D01*
X158639198Y-93713010D01*
X158600142Y-93686914D01*
X158554475Y-93677830D01*
X158330940Y-93585010D01*
X157886000Y-93584622D01*
X157886000Y-92720768D01*
X158021840Y-92695208D01*
X158245792Y-92551099D01*
X158396033Y-92331214D01*
X158448890Y-92070200D01*
X158448890Y-91508200D01*
X162616744Y-91508200D01*
X162724436Y-91581783D01*
X162985450Y-91634640D01*
X165385750Y-91634640D01*
X165421782Y-91627860D01*
X171145200Y-91627860D01*
X171645750Y-91528294D01*
X171674790Y-91508890D01*
X173385800Y-91508890D01*
X173629640Y-91463008D01*
X173853592Y-91318899D01*
X174003833Y-91099014D01*
X174031700Y-90961404D01*
X174031700Y-95648118D01*
X174031700Y-95648118D01*
G37*
X174031700Y-95648118D02*
X173633684Y-95249407D01*
X172748962Y-94882038D01*
X171791000Y-94881202D01*
X170905639Y-95247026D01*
X170227667Y-95923816D01*
X169860298Y-96808538D01*
X169859462Y-97766500D01*
X170225286Y-98651861D01*
X170610951Y-99038200D01*
X166043750Y-99038200D01*
X166043750Y-97233000D01*
X165879250Y-97068500D01*
X164289600Y-97068500D01*
X164289600Y-97088500D01*
X164081600Y-97088500D01*
X164081600Y-97068500D01*
X162491950Y-97068500D01*
X162327450Y-97233000D01*
X162327450Y-99038200D01*
X156875183Y-99038200D01*
X157073792Y-98910399D01*
X157133677Y-98822754D01*
X157270462Y-98795546D01*
X157662365Y-98533685D01*
X158994585Y-97201465D01*
X159256447Y-96809561D01*
X159348400Y-96347280D01*
X159348400Y-95935800D01*
X159348609Y-95696568D01*
X159345860Y-95689915D01*
X159345860Y-94833366D01*
X162327450Y-94833366D01*
X162327450Y-96696000D01*
X162491950Y-96860500D01*
X164081600Y-96860500D01*
X164081600Y-94470750D01*
X164289600Y-94470750D01*
X164289600Y-96860500D01*
X165879250Y-96860500D01*
X166043750Y-96696000D01*
X166043750Y-94833366D01*
X165943576Y-94591523D01*
X165758477Y-94406425D01*
X165516635Y-94306250D01*
X164454100Y-94306250D01*
X164289600Y-94470750D01*
X164081600Y-94470750D01*
X163917100Y-94306250D01*
X162854565Y-94306250D01*
X162612723Y-94406425D01*
X162427624Y-94591523D01*
X162327450Y-94833366D01*
X159345860Y-94833366D01*
X159345860Y-94802960D01*
X159297802Y-94561358D01*
X159297809Y-94553568D01*
X159294808Y-94546305D01*
X159253906Y-94340678D01*
X159138447Y-94167881D01*
X159114290Y-94109417D01*
X159069205Y-94064254D01*
X158992045Y-93948775D01*
X158877573Y-93872287D01*
X158774770Y-93769305D01*
X158639198Y-93713010D01*
X158600142Y-93686914D01*
X158554475Y-93677830D01*
X158330940Y-93585010D01*
X157886000Y-93584622D01*
X157886000Y-92720768D01*
X158021840Y-92695208D01*
X158245792Y-92551099D01*
X158396033Y-92331214D01*
X158448890Y-92070200D01*
X158448890Y-91508200D01*
X162616744Y-91508200D01*
X162724436Y-91581783D01*
X162985450Y-91634640D01*
X165385750Y-91634640D01*
X165421782Y-91627860D01*
X171145200Y-91627860D01*
X171645750Y-91528294D01*
X171674790Y-91508890D01*
X173385800Y-91508890D01*
X173629640Y-91463008D01*
X173853592Y-91318899D01*
X174003833Y-91099014D01*
X174031700Y-90961404D01*
X174031700Y-95648118D01*
G36*
X128834596Y-75016953D02*
X129719318Y-75384322D01*
X130677280Y-75385158D01*
X131562641Y-75019334D01*
X131783200Y-74799160D01*
X131783200Y-82600795D01*
X131783199Y-82600800D01*
X131859929Y-82986545D01*
X132078436Y-83313564D01*
X133030210Y-84265337D01*
X133030210Y-84584300D01*
X133076092Y-84828140D01*
X133220201Y-85052092D01*
X133440086Y-85202333D01*
X133588940Y-85232477D01*
X133738336Y-85456064D01*
X137872140Y-89589868D01*
X137872140Y-90906600D01*
X137918022Y-91150440D01*
X138062131Y-91374392D01*
X138282016Y-91524633D01*
X138543030Y-91577490D01*
X140283784Y-91577490D01*
X140685520Y-91657400D01*
X140778000Y-91657400D01*
X140778000Y-94423001D01*
X140654608Y-94502401D01*
X140504367Y-94722286D01*
X140503627Y-94725938D01*
X140028291Y-94408329D01*
X139446000Y-94292504D01*
X138863709Y-94408329D01*
X138370066Y-94738170D01*
X138175508Y-95029347D01*
X137840500Y-94643013D01*
X137308658Y-94377036D01*
X137246194Y-94363817D01*
X137010000Y-94493791D01*
X137010000Y-95895300D01*
X137030000Y-95895300D01*
X137030000Y-96103300D01*
X137010000Y-96103300D01*
X137010000Y-97504809D01*
X137246194Y-97634783D01*
X137308658Y-97621564D01*
X137840500Y-97355587D01*
X138175508Y-96969253D01*
X138370066Y-97260430D01*
X138863709Y-97590271D01*
X139446000Y-97706096D01*
X140028291Y-97590271D01*
X140505352Y-97271510D01*
X140641501Y-97483092D01*
X140861386Y-97633333D01*
X141122400Y-97686190D01*
X142849600Y-97686190D01*
X143093440Y-97640308D01*
X143317392Y-97496199D01*
X143467633Y-97276314D01*
X143520490Y-97015300D01*
X143520490Y-96578346D01*
X144067390Y-96578346D01*
X144067390Y-97191300D01*
X144231890Y-97355800D01*
X145971400Y-97355800D01*
X145971400Y-96215730D01*
X146179400Y-96215730D01*
X146179400Y-97355800D01*
X147918910Y-97355800D01*
X148083410Y-97191300D01*
X148083410Y-96578346D01*
X147983236Y-96336503D01*
X147798137Y-96151405D01*
X147556295Y-96051230D01*
X146343900Y-96051230D01*
X146179400Y-96215730D01*
X145971400Y-96215730D01*
X145806900Y-96051230D01*
X144594505Y-96051230D01*
X144352663Y-96151405D01*
X144167564Y-96336503D01*
X144067390Y-96578346D01*
X143520490Y-96578346D01*
X143520490Y-94983300D01*
X143474608Y-94739460D01*
X143330499Y-94515508D01*
X143194000Y-94422242D01*
X143194000Y-94291022D01*
X143203950Y-94267060D01*
X143204369Y-93786488D01*
X143194000Y-93761393D01*
X143194000Y-91276102D01*
X143654782Y-91184446D01*
X144046685Y-90922585D01*
X144183469Y-90785801D01*
X144360200Y-90821590D01*
X145860200Y-90821590D01*
X146104040Y-90775708D01*
X146327992Y-90631599D01*
X146478233Y-90411714D01*
X146531090Y-90150700D01*
X146531090Y-86150700D01*
X146485208Y-85906860D01*
X146341099Y-85682908D01*
X146121214Y-85532667D01*
X145860200Y-85479810D01*
X144360200Y-85479810D01*
X144116360Y-85525692D01*
X143892408Y-85669801D01*
X143742167Y-85889686D01*
X143689310Y-86150700D01*
X143689310Y-87863220D01*
X142692130Y-88860400D01*
X142637132Y-88860400D01*
X142623109Y-88838608D01*
X142403224Y-88688367D01*
X142142210Y-88635510D01*
X139768838Y-88635510D01*
X136385323Y-85251995D01*
X136401100Y-85255190D01*
X136763620Y-85255190D01*
X137871715Y-86363285D01*
X138263619Y-86625147D01*
X138725900Y-86717100D01*
X139826519Y-86717100D01*
X140066232Y-86717309D01*
X140510383Y-86533790D01*
X140850495Y-86194270D01*
X141034790Y-85750440D01*
X141035209Y-85269868D01*
X140851690Y-84825717D01*
X140512170Y-84485605D01*
X140068340Y-84301310D01*
X139587768Y-84300891D01*
X139587262Y-84301100D01*
X139226270Y-84301100D01*
X138571990Y-83646820D01*
X138571990Y-83284300D01*
X138526108Y-83040460D01*
X138381999Y-82816508D01*
X138238924Y-82718749D01*
X138330233Y-82585114D01*
X138383090Y-82324100D01*
X138383090Y-81074100D01*
X138337208Y-80830260D01*
X138230516Y-80664456D01*
X139254380Y-81688320D01*
X139522510Y-81867479D01*
X139522510Y-81974300D01*
X139542017Y-82077971D01*
X139522510Y-82174300D01*
X139522510Y-82624300D01*
X139542017Y-82727971D01*
X139522510Y-82824300D01*
X139522510Y-83274300D01*
X139568392Y-83518140D01*
X139712501Y-83742092D01*
X139932386Y-83892333D01*
X140193400Y-83945190D01*
X141724500Y-83945190D01*
X141724500Y-86245518D01*
X141683617Y-86262410D01*
X141343505Y-86601930D01*
X141159210Y-87045760D01*
X141158791Y-87526332D01*
X141342310Y-87970483D01*
X141681830Y-88310595D01*
X142125660Y-88494890D01*
X142606232Y-88495309D01*
X143050383Y-88311790D01*
X143390495Y-87972270D01*
X143574790Y-87528440D01*
X143575209Y-87047868D01*
X143391690Y-86603717D01*
X143390500Y-86602525D01*
X143390500Y-82067400D01*
X143327092Y-81748625D01*
X143146520Y-81478380D01*
X142828420Y-81160280D01*
X142664290Y-81050611D01*
X142664290Y-80874300D01*
X142644783Y-80770629D01*
X142664290Y-80674300D01*
X142664290Y-80224300D01*
X142646829Y-80131505D01*
X142697830Y-80182595D01*
X143141660Y-80366890D01*
X143622232Y-80367309D01*
X143705700Y-80332821D01*
X143705700Y-81844600D01*
X143769108Y-82163376D01*
X143949680Y-82433620D01*
X145179381Y-83663321D01*
X145449625Y-83843893D01*
X145768401Y-83907301D01*
X145906300Y-83907301D01*
X146093400Y-83945190D01*
X147893400Y-83945190D01*
X148137240Y-83899308D01*
X148361192Y-83755199D01*
X148511433Y-83535314D01*
X148564290Y-83274300D01*
X148564290Y-83232300D01*
X149821460Y-83232300D01*
X150147280Y-83558120D01*
X150417524Y-83738692D01*
X150736300Y-83802100D01*
X151818136Y-83802100D01*
X151925129Y-83875205D01*
X151823160Y-83894392D01*
X151599208Y-84038501D01*
X151448967Y-84258386D01*
X151396110Y-84519400D01*
X151396110Y-86219400D01*
X151441992Y-86463240D01*
X151586101Y-86687192D01*
X151805986Y-86837433D01*
X152052400Y-86887333D01*
X152052400Y-86952200D01*
X151478000Y-86952200D01*
X151291434Y-86989310D01*
X150578000Y-86989310D01*
X150334160Y-87035192D01*
X150110208Y-87179301D01*
X149959967Y-87399186D01*
X149907110Y-87660200D01*
X149907110Y-88222200D01*
X149782290Y-88222200D01*
X149782290Y-86150700D01*
X149736408Y-85906860D01*
X149592299Y-85682908D01*
X149372414Y-85532667D01*
X149111400Y-85479810D01*
X147611400Y-85479810D01*
X147367560Y-85525692D01*
X147143608Y-85669801D01*
X146993367Y-85889686D01*
X146940510Y-86150700D01*
X146940510Y-90085720D01*
X145788490Y-91237740D01*
X144725390Y-91237740D01*
X144481550Y-91283622D01*
X144257598Y-91427731D01*
X144107357Y-91647616D01*
X144054500Y-91908630D01*
X144054500Y-93409770D01*
X144100382Y-93653610D01*
X144244491Y-93877562D01*
X144464376Y-94027803D01*
X144725390Y-94080660D01*
X147425410Y-94080660D01*
X147669250Y-94034778D01*
X147893202Y-93890669D01*
X148043443Y-93670784D01*
X148096300Y-93409770D01*
X148096300Y-92346670D01*
X148404270Y-92038700D01*
X149920000Y-92038700D01*
X149920000Y-92201085D01*
X150020175Y-92442927D01*
X150205273Y-92628026D01*
X150447116Y-92728200D01*
X151209500Y-92728200D01*
X151374000Y-92563700D01*
X151374000Y-91874200D01*
X150084500Y-91874200D01*
X149920000Y-92038700D01*
X148404270Y-92038700D01*
X149215585Y-91227385D01*
X149291012Y-91114500D01*
X149477446Y-90835482D01*
X149509019Y-90676754D01*
X149579192Y-90631599D01*
X149729433Y-90411714D01*
X149764571Y-90238200D01*
X149907110Y-90238200D01*
X149907110Y-90800200D01*
X149952992Y-91044040D01*
X150007330Y-91128484D01*
X149920000Y-91339315D01*
X149920000Y-91501700D01*
X150084500Y-91666200D01*
X151374000Y-91666200D01*
X151374000Y-91646200D01*
X151582000Y-91646200D01*
X151582000Y-91666200D01*
X151602000Y-91666200D01*
X151602000Y-91874200D01*
X151582000Y-91874200D01*
X151582000Y-92563700D01*
X151736036Y-92717736D01*
X150820562Y-93633210D01*
X150200200Y-93633210D01*
X149956360Y-93679092D01*
X149732408Y-93823201D01*
X149582167Y-94043086D01*
X149529310Y-94304100D01*
X149529310Y-95804100D01*
X149575192Y-96047940D01*
X149719301Y-96271892D01*
X149768345Y-96305402D01*
X149642374Y-96431373D01*
X149542200Y-96673216D01*
X149542200Y-97285600D01*
X149706700Y-97450100D01*
X150721200Y-97450100D01*
X150721200Y-97430100D01*
X150929200Y-97430100D01*
X150929200Y-97450100D01*
X151943700Y-97450100D01*
X152108200Y-97285600D01*
X152108200Y-96673216D01*
X152008026Y-96431373D01*
X151883711Y-96307058D01*
X151917992Y-96284999D01*
X152068233Y-96065114D01*
X152121090Y-95804100D01*
X152121090Y-95757982D01*
X152166392Y-95998740D01*
X152310501Y-96222692D01*
X152510220Y-96359154D01*
X152418673Y-96397075D01*
X152233574Y-96582173D01*
X152133400Y-96824016D01*
X152133400Y-97436400D01*
X152297900Y-97600900D01*
X153337400Y-97600900D01*
X153337400Y-97580900D01*
X153545400Y-97580900D01*
X153545400Y-97600900D01*
X153565400Y-97600900D01*
X153565400Y-97808900D01*
X153545400Y-97808900D01*
X153545400Y-97828900D01*
X153337400Y-97828900D01*
X153337400Y-97808900D01*
X152297900Y-97808900D01*
X152133400Y-97973400D01*
X152133400Y-98585784D01*
X152233574Y-98827627D01*
X152418673Y-99012725D01*
X152480175Y-99038200D01*
X131887702Y-99038200D01*
X132240613Y-98685904D01*
X132607982Y-97801182D01*
X132608045Y-97728300D01*
X144067390Y-97728300D01*
X144067390Y-98341254D01*
X144167564Y-98583097D01*
X144352663Y-98768195D01*
X144594505Y-98868370D01*
X145806900Y-98868370D01*
X145971400Y-98703870D01*
X145971400Y-97563800D01*
X146179400Y-97563800D01*
X146179400Y-98703870D01*
X146343900Y-98868370D01*
X147556295Y-98868370D01*
X147798137Y-98768195D01*
X147983236Y-98583097D01*
X148083410Y-98341254D01*
X148083410Y-97822600D01*
X149542200Y-97822600D01*
X149542200Y-98434984D01*
X149642374Y-98676827D01*
X149827473Y-98861925D01*
X150069315Y-98962100D01*
X150556700Y-98962100D01*
X150721200Y-98797600D01*
X150721200Y-97658100D01*
X150929200Y-97658100D01*
X150929200Y-98797600D01*
X151093700Y-98962100D01*
X151581085Y-98962100D01*
X151822927Y-98861925D01*
X152008026Y-98676827D01*
X152108200Y-98434984D01*
X152108200Y-97822600D01*
X151943700Y-97658100D01*
X150929200Y-97658100D01*
X150721200Y-97658100D01*
X149706700Y-97658100D01*
X149542200Y-97822600D01*
X148083410Y-97822600D01*
X148083410Y-97728300D01*
X147918910Y-97563800D01*
X146179400Y-97563800D01*
X145971400Y-97563800D01*
X144231890Y-97563800D01*
X144067390Y-97728300D01*
X132608045Y-97728300D01*
X132608818Y-96843220D01*
X132242994Y-95957859D01*
X132099490Y-95814104D01*
X132844400Y-95814104D01*
X132844400Y-96184496D01*
X132960225Y-96766787D01*
X133290066Y-97260430D01*
X133783709Y-97590271D01*
X134366000Y-97706096D01*
X134948291Y-97590271D01*
X135441934Y-97260430D01*
X135636492Y-96969253D01*
X135971500Y-97355587D01*
X136503342Y-97621564D01*
X136565806Y-97634783D01*
X136802000Y-97504809D01*
X136802000Y-96103300D01*
X136782000Y-96103300D01*
X136782000Y-95895300D01*
X136802000Y-95895300D01*
X136802000Y-94493791D01*
X136565806Y-94363817D01*
X136503342Y-94377036D01*
X135971500Y-94643013D01*
X135636492Y-95029347D01*
X135441934Y-94738170D01*
X134948291Y-94408329D01*
X134366000Y-94292504D01*
X133783709Y-94408329D01*
X133290066Y-94738170D01*
X132960225Y-95231813D01*
X132844400Y-95814104D01*
X132099490Y-95814104D01*
X131566204Y-95279887D01*
X130681482Y-94912518D01*
X129723520Y-94911682D01*
X128838159Y-95277506D01*
X128495000Y-95620067D01*
X128495000Y-90375000D01*
X132383390Y-90375000D01*
X132383390Y-91037485D01*
X132483565Y-91279327D01*
X132668663Y-91464426D01*
X132910506Y-91564600D01*
X134572480Y-91564600D01*
X134736980Y-91400100D01*
X134736980Y-90210500D01*
X134944980Y-90210500D01*
X134944980Y-91400100D01*
X135109480Y-91564600D01*
X136771454Y-91564600D01*
X137013297Y-91464426D01*
X137198395Y-91279327D01*
X137298570Y-91037485D01*
X137298570Y-90375000D01*
X137134070Y-90210500D01*
X134944980Y-90210500D01*
X134736980Y-90210500D01*
X132547890Y-90210500D01*
X132383390Y-90375000D01*
X128495000Y-90375000D01*
X128495000Y-89175515D01*
X132383390Y-89175515D01*
X132383390Y-89838000D01*
X132547890Y-90002500D01*
X134736980Y-90002500D01*
X134736980Y-88812900D01*
X134944980Y-88812900D01*
X134944980Y-90002500D01*
X137134070Y-90002500D01*
X137298570Y-89838000D01*
X137298570Y-89175515D01*
X137198395Y-88933673D01*
X137013297Y-88748574D01*
X136771454Y-88648400D01*
X135109480Y-88648400D01*
X134944980Y-88812900D01*
X134736980Y-88812900D01*
X134572480Y-88648400D01*
X132910506Y-88648400D01*
X132668663Y-88748574D01*
X132483565Y-88933673D01*
X132383390Y-89175515D01*
X128495000Y-89175515D01*
X128495000Y-74676764D01*
X128834596Y-75016953D01*
X128834596Y-75016953D01*
G37*
X128834596Y-75016953D02*
X129719318Y-75384322D01*
X130677280Y-75385158D01*
X131562641Y-75019334D01*
X131783200Y-74799160D01*
X131783200Y-82600795D01*
X131783199Y-82600800D01*
X131859929Y-82986545D01*
X132078436Y-83313564D01*
X133030210Y-84265337D01*
X133030210Y-84584300D01*
X133076092Y-84828140D01*
X133220201Y-85052092D01*
X133440086Y-85202333D01*
X133588940Y-85232477D01*
X133738336Y-85456064D01*
X137872140Y-89589868D01*
X137872140Y-90906600D01*
X137918022Y-91150440D01*
X138062131Y-91374392D01*
X138282016Y-91524633D01*
X138543030Y-91577490D01*
X140283784Y-91577490D01*
X140685520Y-91657400D01*
X140778000Y-91657400D01*
X140778000Y-94423001D01*
X140654608Y-94502401D01*
X140504367Y-94722286D01*
X140503627Y-94725938D01*
X140028291Y-94408329D01*
X139446000Y-94292504D01*
X138863709Y-94408329D01*
X138370066Y-94738170D01*
X138175508Y-95029347D01*
X137840500Y-94643013D01*
X137308658Y-94377036D01*
X137246194Y-94363817D01*
X137010000Y-94493791D01*
X137010000Y-95895300D01*
X137030000Y-95895300D01*
X137030000Y-96103300D01*
X137010000Y-96103300D01*
X137010000Y-97504809D01*
X137246194Y-97634783D01*
X137308658Y-97621564D01*
X137840500Y-97355587D01*
X138175508Y-96969253D01*
X138370066Y-97260430D01*
X138863709Y-97590271D01*
X139446000Y-97706096D01*
X140028291Y-97590271D01*
X140505352Y-97271510D01*
X140641501Y-97483092D01*
X140861386Y-97633333D01*
X141122400Y-97686190D01*
X142849600Y-97686190D01*
X143093440Y-97640308D01*
X143317392Y-97496199D01*
X143467633Y-97276314D01*
X143520490Y-97015300D01*
X143520490Y-96578346D01*
X144067390Y-96578346D01*
X144067390Y-97191300D01*
X144231890Y-97355800D01*
X145971400Y-97355800D01*
X145971400Y-96215730D01*
X146179400Y-96215730D01*
X146179400Y-97355800D01*
X147918910Y-97355800D01*
X148083410Y-97191300D01*
X148083410Y-96578346D01*
X147983236Y-96336503D01*
X147798137Y-96151405D01*
X147556295Y-96051230D01*
X146343900Y-96051230D01*
X146179400Y-96215730D01*
X145971400Y-96215730D01*
X145806900Y-96051230D01*
X144594505Y-96051230D01*
X144352663Y-96151405D01*
X144167564Y-96336503D01*
X144067390Y-96578346D01*
X143520490Y-96578346D01*
X143520490Y-94983300D01*
X143474608Y-94739460D01*
X143330499Y-94515508D01*
X143194000Y-94422242D01*
X143194000Y-94291022D01*
X143203950Y-94267060D01*
X143204369Y-93786488D01*
X143194000Y-93761393D01*
X143194000Y-91276102D01*
X143654782Y-91184446D01*
X144046685Y-90922585D01*
X144183469Y-90785801D01*
X144360200Y-90821590D01*
X145860200Y-90821590D01*
X146104040Y-90775708D01*
X146327992Y-90631599D01*
X146478233Y-90411714D01*
X146531090Y-90150700D01*
X146531090Y-86150700D01*
X146485208Y-85906860D01*
X146341099Y-85682908D01*
X146121214Y-85532667D01*
X145860200Y-85479810D01*
X144360200Y-85479810D01*
X144116360Y-85525692D01*
X143892408Y-85669801D01*
X143742167Y-85889686D01*
X143689310Y-86150700D01*
X143689310Y-87863220D01*
X142692130Y-88860400D01*
X142637132Y-88860400D01*
X142623109Y-88838608D01*
X142403224Y-88688367D01*
X142142210Y-88635510D01*
X139768838Y-88635510D01*
X136385323Y-85251995D01*
X136401100Y-85255190D01*
X136763620Y-85255190D01*
X137871715Y-86363285D01*
X138263619Y-86625147D01*
X138725900Y-86717100D01*
X139826519Y-86717100D01*
X140066232Y-86717309D01*
X140510383Y-86533790D01*
X140850495Y-86194270D01*
X141034790Y-85750440D01*
X141035209Y-85269868D01*
X140851690Y-84825717D01*
X140512170Y-84485605D01*
X140068340Y-84301310D01*
X139587768Y-84300891D01*
X139587262Y-84301100D01*
X139226270Y-84301100D01*
X138571990Y-83646820D01*
X138571990Y-83284300D01*
X138526108Y-83040460D01*
X138381999Y-82816508D01*
X138238924Y-82718749D01*
X138330233Y-82585114D01*
X138383090Y-82324100D01*
X138383090Y-81074100D01*
X138337208Y-80830260D01*
X138230516Y-80664456D01*
X139254380Y-81688320D01*
X139522510Y-81867479D01*
X139522510Y-81974300D01*
X139542017Y-82077971D01*
X139522510Y-82174300D01*
X139522510Y-82624300D01*
X139542017Y-82727971D01*
X139522510Y-82824300D01*
X139522510Y-83274300D01*
X139568392Y-83518140D01*
X139712501Y-83742092D01*
X139932386Y-83892333D01*
X140193400Y-83945190D01*
X141724500Y-83945190D01*
X141724500Y-86245518D01*
X141683617Y-86262410D01*
X141343505Y-86601930D01*
X141159210Y-87045760D01*
X141158791Y-87526332D01*
X141342310Y-87970483D01*
X141681830Y-88310595D01*
X142125660Y-88494890D01*
X142606232Y-88495309D01*
X143050383Y-88311790D01*
X143390495Y-87972270D01*
X143574790Y-87528440D01*
X143575209Y-87047868D01*
X143391690Y-86603717D01*
X143390500Y-86602525D01*
X143390500Y-82067400D01*
X143327092Y-81748625D01*
X143146520Y-81478380D01*
X142828420Y-81160280D01*
X142664290Y-81050611D01*
X142664290Y-80874300D01*
X142644783Y-80770629D01*
X142664290Y-80674300D01*
X142664290Y-80224300D01*
X142646829Y-80131505D01*
X142697830Y-80182595D01*
X143141660Y-80366890D01*
X143622232Y-80367309D01*
X143705700Y-80332821D01*
X143705700Y-81844600D01*
X143769108Y-82163376D01*
X143949680Y-82433620D01*
X145179381Y-83663321D01*
X145449625Y-83843893D01*
X145768401Y-83907301D01*
X145906300Y-83907301D01*
X146093400Y-83945190D01*
X147893400Y-83945190D01*
X148137240Y-83899308D01*
X148361192Y-83755199D01*
X148511433Y-83535314D01*
X148564290Y-83274300D01*
X148564290Y-83232300D01*
X149821460Y-83232300D01*
X150147280Y-83558120D01*
X150417524Y-83738692D01*
X150736300Y-83802100D01*
X151818136Y-83802100D01*
X151925129Y-83875205D01*
X151823160Y-83894392D01*
X151599208Y-84038501D01*
X151448967Y-84258386D01*
X151396110Y-84519400D01*
X151396110Y-86219400D01*
X151441992Y-86463240D01*
X151586101Y-86687192D01*
X151805986Y-86837433D01*
X152052400Y-86887333D01*
X152052400Y-86952200D01*
X151478000Y-86952200D01*
X151291434Y-86989310D01*
X150578000Y-86989310D01*
X150334160Y-87035192D01*
X150110208Y-87179301D01*
X149959967Y-87399186D01*
X149907110Y-87660200D01*
X149907110Y-88222200D01*
X149782290Y-88222200D01*
X149782290Y-86150700D01*
X149736408Y-85906860D01*
X149592299Y-85682908D01*
X149372414Y-85532667D01*
X149111400Y-85479810D01*
X147611400Y-85479810D01*
X147367560Y-85525692D01*
X147143608Y-85669801D01*
X146993367Y-85889686D01*
X146940510Y-86150700D01*
X146940510Y-90085720D01*
X145788490Y-91237740D01*
X144725390Y-91237740D01*
X144481550Y-91283622D01*
X144257598Y-91427731D01*
X144107357Y-91647616D01*
X144054500Y-91908630D01*
X144054500Y-93409770D01*
X144100382Y-93653610D01*
X144244491Y-93877562D01*
X144464376Y-94027803D01*
X144725390Y-94080660D01*
X147425410Y-94080660D01*
X147669250Y-94034778D01*
X147893202Y-93890669D01*
X148043443Y-93670784D01*
X148096300Y-93409770D01*
X148096300Y-92346670D01*
X148404270Y-92038700D01*
X149920000Y-92038700D01*
X149920000Y-92201085D01*
X150020175Y-92442927D01*
X150205273Y-92628026D01*
X150447116Y-92728200D01*
X151209500Y-92728200D01*
X151374000Y-92563700D01*
X151374000Y-91874200D01*
X150084500Y-91874200D01*
X149920000Y-92038700D01*
X148404270Y-92038700D01*
X149215585Y-91227385D01*
X149291012Y-91114500D01*
X149477446Y-90835482D01*
X149509019Y-90676754D01*
X149579192Y-90631599D01*
X149729433Y-90411714D01*
X149764571Y-90238200D01*
X149907110Y-90238200D01*
X149907110Y-90800200D01*
X149952992Y-91044040D01*
X150007330Y-91128484D01*
X149920000Y-91339315D01*
X149920000Y-91501700D01*
X150084500Y-91666200D01*
X151374000Y-91666200D01*
X151374000Y-91646200D01*
X151582000Y-91646200D01*
X151582000Y-91666200D01*
X151602000Y-91666200D01*
X151602000Y-91874200D01*
X151582000Y-91874200D01*
X151582000Y-92563700D01*
X151736036Y-92717736D01*
X150820562Y-93633210D01*
X150200200Y-93633210D01*
X149956360Y-93679092D01*
X149732408Y-93823201D01*
X149582167Y-94043086D01*
X149529310Y-94304100D01*
X149529310Y-95804100D01*
X149575192Y-96047940D01*
X149719301Y-96271892D01*
X149768345Y-96305402D01*
X149642374Y-96431373D01*
X149542200Y-96673216D01*
X149542200Y-97285600D01*
X149706700Y-97450100D01*
X150721200Y-97450100D01*
X150721200Y-97430100D01*
X150929200Y-97430100D01*
X150929200Y-97450100D01*
X151943700Y-97450100D01*
X152108200Y-97285600D01*
X152108200Y-96673216D01*
X152008026Y-96431373D01*
X151883711Y-96307058D01*
X151917992Y-96284999D01*
X152068233Y-96065114D01*
X152121090Y-95804100D01*
X152121090Y-95757982D01*
X152166392Y-95998740D01*
X152310501Y-96222692D01*
X152510220Y-96359154D01*
X152418673Y-96397075D01*
X152233574Y-96582173D01*
X152133400Y-96824016D01*
X152133400Y-97436400D01*
X152297900Y-97600900D01*
X153337400Y-97600900D01*
X153337400Y-97580900D01*
X153545400Y-97580900D01*
X153545400Y-97600900D01*
X153565400Y-97600900D01*
X153565400Y-97808900D01*
X153545400Y-97808900D01*
X153545400Y-97828900D01*
X153337400Y-97828900D01*
X153337400Y-97808900D01*
X152297900Y-97808900D01*
X152133400Y-97973400D01*
X152133400Y-98585784D01*
X152233574Y-98827627D01*
X152418673Y-99012725D01*
X152480175Y-99038200D01*
X131887702Y-99038200D01*
X132240613Y-98685904D01*
X132607982Y-97801182D01*
X132608045Y-97728300D01*
X144067390Y-97728300D01*
X144067390Y-98341254D01*
X144167564Y-98583097D01*
X144352663Y-98768195D01*
X144594505Y-98868370D01*
X145806900Y-98868370D01*
X145971400Y-98703870D01*
X145971400Y-97563800D01*
X146179400Y-97563800D01*
X146179400Y-98703870D01*
X146343900Y-98868370D01*
X147556295Y-98868370D01*
X147798137Y-98768195D01*
X147983236Y-98583097D01*
X148083410Y-98341254D01*
X148083410Y-97822600D01*
X149542200Y-97822600D01*
X149542200Y-98434984D01*
X149642374Y-98676827D01*
X149827473Y-98861925D01*
X150069315Y-98962100D01*
X150556700Y-98962100D01*
X150721200Y-98797600D01*
X150721200Y-97658100D01*
X150929200Y-97658100D01*
X150929200Y-98797600D01*
X151093700Y-98962100D01*
X151581085Y-98962100D01*
X151822927Y-98861925D01*
X152008026Y-98676827D01*
X152108200Y-98434984D01*
X152108200Y-97822600D01*
X151943700Y-97658100D01*
X150929200Y-97658100D01*
X150721200Y-97658100D01*
X149706700Y-97658100D01*
X149542200Y-97822600D01*
X148083410Y-97822600D01*
X148083410Y-97728300D01*
X147918910Y-97563800D01*
X146179400Y-97563800D01*
X145971400Y-97563800D01*
X144231890Y-97563800D01*
X144067390Y-97728300D01*
X132608045Y-97728300D01*
X132608818Y-96843220D01*
X132242994Y-95957859D01*
X132099490Y-95814104D01*
X132844400Y-95814104D01*
X132844400Y-96184496D01*
X132960225Y-96766787D01*
X133290066Y-97260430D01*
X133783709Y-97590271D01*
X134366000Y-97706096D01*
X134948291Y-97590271D01*
X135441934Y-97260430D01*
X135636492Y-96969253D01*
X135971500Y-97355587D01*
X136503342Y-97621564D01*
X136565806Y-97634783D01*
X136802000Y-97504809D01*
X136802000Y-96103300D01*
X136782000Y-96103300D01*
X136782000Y-95895300D01*
X136802000Y-95895300D01*
X136802000Y-94493791D01*
X136565806Y-94363817D01*
X136503342Y-94377036D01*
X135971500Y-94643013D01*
X135636492Y-95029347D01*
X135441934Y-94738170D01*
X134948291Y-94408329D01*
X134366000Y-94292504D01*
X133783709Y-94408329D01*
X133290066Y-94738170D01*
X132960225Y-95231813D01*
X132844400Y-95814104D01*
X132099490Y-95814104D01*
X131566204Y-95279887D01*
X130681482Y-94912518D01*
X129723520Y-94911682D01*
X128838159Y-95277506D01*
X128495000Y-95620067D01*
X128495000Y-90375000D01*
X132383390Y-90375000D01*
X132383390Y-91037485D01*
X132483565Y-91279327D01*
X132668663Y-91464426D01*
X132910506Y-91564600D01*
X134572480Y-91564600D01*
X134736980Y-91400100D01*
X134736980Y-90210500D01*
X134944980Y-90210500D01*
X134944980Y-91400100D01*
X135109480Y-91564600D01*
X136771454Y-91564600D01*
X137013297Y-91464426D01*
X137198395Y-91279327D01*
X137298570Y-91037485D01*
X137298570Y-90375000D01*
X137134070Y-90210500D01*
X134944980Y-90210500D01*
X134736980Y-90210500D01*
X132547890Y-90210500D01*
X132383390Y-90375000D01*
X128495000Y-90375000D01*
X128495000Y-89175515D01*
X132383390Y-89175515D01*
X132383390Y-89838000D01*
X132547890Y-90002500D01*
X134736980Y-90002500D01*
X134736980Y-88812900D01*
X134944980Y-88812900D01*
X134944980Y-90002500D01*
X137134070Y-90002500D01*
X137298570Y-89838000D01*
X137298570Y-89175515D01*
X137198395Y-88933673D01*
X137013297Y-88748574D01*
X136771454Y-88648400D01*
X135109480Y-88648400D01*
X134944980Y-88812900D01*
X134736980Y-88812900D01*
X134572480Y-88648400D01*
X132910506Y-88648400D01*
X132668663Y-88748574D01*
X132483565Y-88933673D01*
X132383390Y-89175515D01*
X128495000Y-89175515D01*
X128495000Y-74676764D01*
X128834596Y-75016953D01*
G36*
X172883600Y-81489665D02*
X172789826Y-81263273D01*
X172604727Y-81078175D01*
X172362885Y-80978000D01*
X171200500Y-80978000D01*
X171036000Y-81142500D01*
X171036000Y-82532000D01*
X171056000Y-82532000D01*
X171056000Y-82740000D01*
X171036000Y-82740000D01*
X171036000Y-84129500D01*
X171200500Y-84294000D01*
X172362885Y-84294000D01*
X172604727Y-84193825D01*
X172789826Y-84008727D01*
X172883600Y-83782335D01*
X172883600Y-84231830D01*
X172348320Y-84767110D01*
X170885800Y-84767110D01*
X170641960Y-84812992D01*
X170418008Y-84957101D01*
X170267767Y-85176986D01*
X170214910Y-85438000D01*
X170214910Y-87438000D01*
X170260792Y-87681840D01*
X170404901Y-87905792D01*
X170624786Y-88056033D01*
X170885800Y-88108890D01*
X173385800Y-88108890D01*
X173629640Y-88063008D01*
X173853592Y-87918899D01*
X174003833Y-87699014D01*
X174031700Y-87561404D01*
X174031700Y-88705191D01*
X174010808Y-88594160D01*
X173866699Y-88370208D01*
X173646814Y-88219967D01*
X173385800Y-88167110D01*
X172176416Y-88167110D01*
X172094420Y-88150800D01*
X166056640Y-88150800D01*
X166056640Y-86963250D01*
X166010758Y-86719410D01*
X165866649Y-86495458D01*
X165646764Y-86345217D01*
X165385750Y-86292360D01*
X163364252Y-86292360D01*
X161516396Y-84444504D01*
X161092050Y-84160966D01*
X160591500Y-84061400D01*
X158554200Y-84061400D01*
X158547899Y-84051608D01*
X158328014Y-83901367D01*
X158272147Y-83890053D01*
X158399600Y-83762600D01*
X158399600Y-83073100D01*
X158607600Y-83073100D01*
X158607600Y-83762600D01*
X158772100Y-83927100D01*
X159534484Y-83927100D01*
X159776327Y-83826926D01*
X159961425Y-83641827D01*
X160061600Y-83399985D01*
X160061600Y-83237600D01*
X159897100Y-83073100D01*
X158607600Y-83073100D01*
X158399600Y-83073100D01*
X157110100Y-83073100D01*
X156945600Y-83237600D01*
X156945600Y-83399985D01*
X157045775Y-83641827D01*
X157230873Y-83826926D01*
X157282982Y-83848510D01*
X156067000Y-83848510D01*
X155823160Y-83894392D01*
X155599208Y-84038501D01*
X155448967Y-84258386D01*
X155396110Y-84519400D01*
X155396110Y-86219400D01*
X155441992Y-86463240D01*
X155586101Y-86687192D01*
X155805986Y-86837433D01*
X156067000Y-86890290D01*
X158067000Y-86890290D01*
X158310840Y-86844408D01*
X158534792Y-86700299D01*
X158550438Y-86677400D01*
X160049708Y-86677400D01*
X162314560Y-88942252D01*
X162314560Y-89409012D01*
X162231372Y-89492200D01*
X158448890Y-89492200D01*
X158448890Y-88930200D01*
X158403008Y-88686360D01*
X158344897Y-88596053D01*
X158396033Y-88521214D01*
X158448890Y-88260200D01*
X158448890Y-87660200D01*
X158403008Y-87416360D01*
X158258899Y-87192408D01*
X158039014Y-87042167D01*
X157778000Y-86989310D01*
X157064566Y-86989310D01*
X156878000Y-86952200D01*
X154068400Y-86952200D01*
X154068400Y-86890027D01*
X154310840Y-86844408D01*
X154534792Y-86700299D01*
X154685033Y-86480414D01*
X154737890Y-86219400D01*
X154737890Y-84519400D01*
X154692008Y-84275560D01*
X154547899Y-84051608D01*
X154328014Y-83901367D01*
X154258147Y-83887218D01*
X154471392Y-83749999D01*
X154621633Y-83530114D01*
X154674490Y-83269100D01*
X154674490Y-82904500D01*
X168974000Y-82904500D01*
X168974000Y-83766884D01*
X169074174Y-84008727D01*
X169259273Y-84193825D01*
X169501115Y-84294000D01*
X170663500Y-84294000D01*
X170828000Y-84129500D01*
X170828000Y-82740000D01*
X169138500Y-82740000D01*
X168974000Y-82904500D01*
X154674490Y-82904500D01*
X154674490Y-82669100D01*
X154628608Y-82425260D01*
X154570497Y-82334953D01*
X154621633Y-82260114D01*
X154674490Y-81999100D01*
X154674490Y-81399100D01*
X154628608Y-81155260D01*
X154570497Y-81064953D01*
X154621633Y-80990114D01*
X154674490Y-80729100D01*
X154674490Y-80652221D01*
X154747425Y-80761375D01*
X156309525Y-82323475D01*
X156595990Y-82514886D01*
X156933900Y-82582100D01*
X156945600Y-82582100D01*
X156945600Y-82700600D01*
X157110100Y-82865100D01*
X158399600Y-82865100D01*
X158399600Y-82845100D01*
X158607600Y-82845100D01*
X158607600Y-82865100D01*
X159897100Y-82865100D01*
X160055100Y-82707100D01*
X166378895Y-82707100D01*
X166378900Y-82707101D01*
X166764645Y-82630371D01*
X167091664Y-82411864D01*
X167998411Y-81505116D01*
X168974000Y-81505116D01*
X168974000Y-82367500D01*
X169138500Y-82532000D01*
X170828000Y-82532000D01*
X170828000Y-81142500D01*
X170663500Y-80978000D01*
X169501115Y-80978000D01*
X169259273Y-81078175D01*
X169074174Y-81263273D01*
X168974000Y-81505116D01*
X167998411Y-81505116D01*
X169336684Y-80166843D01*
X169431258Y-80308383D01*
X169969152Y-80667792D01*
X170603641Y-80794000D01*
X171280359Y-80794000D01*
X171914848Y-80667792D01*
X172452742Y-80308383D01*
X172812151Y-79770489D01*
X172883600Y-79411291D01*
X172883600Y-81489665D01*
X172883600Y-81489665D01*
G37*
X172883600Y-81489665D02*
X172789826Y-81263273D01*
X172604727Y-81078175D01*
X172362885Y-80978000D01*
X171200500Y-80978000D01*
X171036000Y-81142500D01*
X171036000Y-82532000D01*
X171056000Y-82532000D01*
X171056000Y-82740000D01*
X171036000Y-82740000D01*
X171036000Y-84129500D01*
X171200500Y-84294000D01*
X172362885Y-84294000D01*
X172604727Y-84193825D01*
X172789826Y-84008727D01*
X172883600Y-83782335D01*
X172883600Y-84231830D01*
X172348320Y-84767110D01*
X170885800Y-84767110D01*
X170641960Y-84812992D01*
X170418008Y-84957101D01*
X170267767Y-85176986D01*
X170214910Y-85438000D01*
X170214910Y-87438000D01*
X170260792Y-87681840D01*
X170404901Y-87905792D01*
X170624786Y-88056033D01*
X170885800Y-88108890D01*
X173385800Y-88108890D01*
X173629640Y-88063008D01*
X173853592Y-87918899D01*
X174003833Y-87699014D01*
X174031700Y-87561404D01*
X174031700Y-88705191D01*
X174010808Y-88594160D01*
X173866699Y-88370208D01*
X173646814Y-88219967D01*
X173385800Y-88167110D01*
X172176416Y-88167110D01*
X172094420Y-88150800D01*
X166056640Y-88150800D01*
X166056640Y-86963250D01*
X166010758Y-86719410D01*
X165866649Y-86495458D01*
X165646764Y-86345217D01*
X165385750Y-86292360D01*
X163364252Y-86292360D01*
X161516396Y-84444504D01*
X161092050Y-84160966D01*
X160591500Y-84061400D01*
X158554200Y-84061400D01*
X158547899Y-84051608D01*
X158328014Y-83901367D01*
X158272147Y-83890053D01*
X158399600Y-83762600D01*
X158399600Y-83073100D01*
X158607600Y-83073100D01*
X158607600Y-83762600D01*
X158772100Y-83927100D01*
X159534484Y-83927100D01*
X159776327Y-83826926D01*
X159961425Y-83641827D01*
X160061600Y-83399985D01*
X160061600Y-83237600D01*
X159897100Y-83073100D01*
X158607600Y-83073100D01*
X158399600Y-83073100D01*
X157110100Y-83073100D01*
X156945600Y-83237600D01*
X156945600Y-83399985D01*
X157045775Y-83641827D01*
X157230873Y-83826926D01*
X157282982Y-83848510D01*
X156067000Y-83848510D01*
X155823160Y-83894392D01*
X155599208Y-84038501D01*
X155448967Y-84258386D01*
X155396110Y-84519400D01*
X155396110Y-86219400D01*
X155441992Y-86463240D01*
X155586101Y-86687192D01*
X155805986Y-86837433D01*
X156067000Y-86890290D01*
X158067000Y-86890290D01*
X158310840Y-86844408D01*
X158534792Y-86700299D01*
X158550438Y-86677400D01*
X160049708Y-86677400D01*
X162314560Y-88942252D01*
X162314560Y-89409012D01*
X162231372Y-89492200D01*
X158448890Y-89492200D01*
X158448890Y-88930200D01*
X158403008Y-88686360D01*
X158344897Y-88596053D01*
X158396033Y-88521214D01*
X158448890Y-88260200D01*
X158448890Y-87660200D01*
X158403008Y-87416360D01*
X158258899Y-87192408D01*
X158039014Y-87042167D01*
X157778000Y-86989310D01*
X157064566Y-86989310D01*
X156878000Y-86952200D01*
X154068400Y-86952200D01*
X154068400Y-86890027D01*
X154310840Y-86844408D01*
X154534792Y-86700299D01*
X154685033Y-86480414D01*
X154737890Y-86219400D01*
X154737890Y-84519400D01*
X154692008Y-84275560D01*
X154547899Y-84051608D01*
X154328014Y-83901367D01*
X154258147Y-83887218D01*
X154471392Y-83749999D01*
X154621633Y-83530114D01*
X154674490Y-83269100D01*
X154674490Y-82904500D01*
X168974000Y-82904500D01*
X168974000Y-83766884D01*
X169074174Y-84008727D01*
X169259273Y-84193825D01*
X169501115Y-84294000D01*
X170663500Y-84294000D01*
X170828000Y-84129500D01*
X170828000Y-82740000D01*
X169138500Y-82740000D01*
X168974000Y-82904500D01*
X154674490Y-82904500D01*
X154674490Y-82669100D01*
X154628608Y-82425260D01*
X154570497Y-82334953D01*
X154621633Y-82260114D01*
X154674490Y-81999100D01*
X154674490Y-81399100D01*
X154628608Y-81155260D01*
X154570497Y-81064953D01*
X154621633Y-80990114D01*
X154674490Y-80729100D01*
X154674490Y-80652221D01*
X154747425Y-80761375D01*
X156309525Y-82323475D01*
X156595990Y-82514886D01*
X156933900Y-82582100D01*
X156945600Y-82582100D01*
X156945600Y-82700600D01*
X157110100Y-82865100D01*
X158399600Y-82865100D01*
X158399600Y-82845100D01*
X158607600Y-82845100D01*
X158607600Y-82865100D01*
X159897100Y-82865100D01*
X160055100Y-82707100D01*
X166378895Y-82707100D01*
X166378900Y-82707101D01*
X166764645Y-82630371D01*
X167091664Y-82411864D01*
X167998411Y-81505116D01*
X168974000Y-81505116D01*
X168974000Y-82367500D01*
X169138500Y-82532000D01*
X170828000Y-82532000D01*
X170828000Y-81142500D01*
X170663500Y-80978000D01*
X169501115Y-80978000D01*
X169259273Y-81078175D01*
X169074174Y-81263273D01*
X168974000Y-81505116D01*
X167998411Y-81505116D01*
X169336684Y-80166843D01*
X169431258Y-80308383D01*
X169969152Y-80667792D01*
X170603641Y-80794000D01*
X171280359Y-80794000D01*
X171914848Y-80667792D01*
X172452742Y-80308383D01*
X172812151Y-79770489D01*
X172883600Y-79411291D01*
X172883600Y-81489665D01*
G36*
X134566200Y-81595100D02*
X134586200Y-81595100D01*
X134586200Y-81803100D01*
X134566200Y-81803100D01*
X134566200Y-81823100D01*
X134358200Y-81823100D01*
X134358200Y-81803100D01*
X134338200Y-81803100D01*
X134338200Y-81595100D01*
X134358200Y-81595100D01*
X134358200Y-81575100D01*
X134566200Y-81575100D01*
X134566200Y-81595100D01*
X134566200Y-81595100D01*
G37*
X134566200Y-81595100D02*
X134586200Y-81595100D01*
X134586200Y-81803100D01*
X134566200Y-81803100D01*
X134566200Y-81823100D01*
X134358200Y-81823100D01*
X134358200Y-81803100D01*
X134338200Y-81803100D01*
X134338200Y-81595100D01*
X134358200Y-81595100D01*
X134358200Y-81575100D01*
X134566200Y-81575100D01*
X134566200Y-81595100D01*
G36*
X135661310Y-77441500D02*
X135707192Y-77685340D01*
X135851301Y-77909292D01*
X136047075Y-78043058D01*
X135864408Y-78160601D01*
X135714167Y-78380486D01*
X135661310Y-78641500D01*
X135661310Y-80141500D01*
X135707192Y-80385340D01*
X135812678Y-80549270D01*
X135744408Y-80593201D01*
X135710898Y-80642245D01*
X135584927Y-80516274D01*
X135521748Y-80490105D01*
X135548426Y-80463427D01*
X135648600Y-80221584D01*
X135648600Y-79609200D01*
X135484100Y-79444700D01*
X134444600Y-79444700D01*
X134444600Y-79464700D01*
X134236600Y-79464700D01*
X134236600Y-79444700D01*
X134216600Y-79444700D01*
X134216600Y-79236700D01*
X134236600Y-79236700D01*
X134236600Y-79216700D01*
X134444600Y-79216700D01*
X134444600Y-79236700D01*
X135484100Y-79236700D01*
X135648600Y-79072200D01*
X135648600Y-78459816D01*
X135548426Y-78217973D01*
X135363327Y-78032875D01*
X135268684Y-77993672D01*
X135458392Y-77871599D01*
X135608633Y-77651714D01*
X135661310Y-77391589D01*
X135661310Y-77441500D01*
X135661310Y-77441500D01*
G37*
X135661310Y-77441500D02*
X135707192Y-77685340D01*
X135851301Y-77909292D01*
X136047075Y-78043058D01*
X135864408Y-78160601D01*
X135714167Y-78380486D01*
X135661310Y-78641500D01*
X135661310Y-80141500D01*
X135707192Y-80385340D01*
X135812678Y-80549270D01*
X135744408Y-80593201D01*
X135710898Y-80642245D01*
X135584927Y-80516274D01*
X135521748Y-80490105D01*
X135548426Y-80463427D01*
X135648600Y-80221584D01*
X135648600Y-79609200D01*
X135484100Y-79444700D01*
X134444600Y-79444700D01*
X134444600Y-79464700D01*
X134236600Y-79464700D01*
X134236600Y-79444700D01*
X134216600Y-79444700D01*
X134216600Y-79236700D01*
X134236600Y-79236700D01*
X134236600Y-79216700D01*
X134444600Y-79216700D01*
X134444600Y-79236700D01*
X135484100Y-79236700D01*
X135648600Y-79072200D01*
X135648600Y-78459816D01*
X135548426Y-78217973D01*
X135363327Y-78032875D01*
X135268684Y-77993672D01*
X135458392Y-77871599D01*
X135608633Y-77651714D01*
X135661310Y-77391589D01*
X135661310Y-77441500D01*
G36*
X153240600Y-75560700D02*
X153260600Y-75560700D01*
X153260600Y-75768700D01*
X153240600Y-75768700D01*
X153240600Y-76908200D01*
X153405100Y-77072700D01*
X153892485Y-77072700D01*
X154134327Y-76972525D01*
X154271402Y-76835451D01*
X154485786Y-76981933D01*
X154488800Y-76982543D01*
X154488800Y-78397992D01*
X154484499Y-78391308D01*
X154264614Y-78241067D01*
X154003600Y-78188210D01*
X152203600Y-78188210D01*
X151959760Y-78234092D01*
X151816775Y-78326100D01*
X151684002Y-78326100D01*
X151365226Y-78389508D01*
X151094982Y-78570080D01*
X149957551Y-79707511D01*
X149656170Y-79405605D01*
X149407721Y-79302439D01*
X149576376Y-79268892D01*
X149846620Y-79088320D01*
X151515820Y-77419120D01*
X151576662Y-77328064D01*
X151696392Y-77148875D01*
X151701577Y-77122807D01*
X151795640Y-77105108D01*
X152019592Y-76960999D01*
X152063332Y-76896984D01*
X152138873Y-76972525D01*
X152380715Y-77072700D01*
X152868100Y-77072700D01*
X153032600Y-76908200D01*
X153032600Y-75768700D01*
X153012600Y-75768700D01*
X153012600Y-75560700D01*
X153032600Y-75560700D01*
X153032600Y-75540700D01*
X153240600Y-75540700D01*
X153240600Y-75560700D01*
X153240600Y-75560700D01*
G37*
X153240600Y-75560700D02*
X153260600Y-75560700D01*
X153260600Y-75768700D01*
X153240600Y-75768700D01*
X153240600Y-76908200D01*
X153405100Y-77072700D01*
X153892485Y-77072700D01*
X154134327Y-76972525D01*
X154271402Y-76835451D01*
X154485786Y-76981933D01*
X154488800Y-76982543D01*
X154488800Y-78397992D01*
X154484499Y-78391308D01*
X154264614Y-78241067D01*
X154003600Y-78188210D01*
X152203600Y-78188210D01*
X151959760Y-78234092D01*
X151816775Y-78326100D01*
X151684002Y-78326100D01*
X151365226Y-78389508D01*
X151094982Y-78570080D01*
X149957551Y-79707511D01*
X149656170Y-79405605D01*
X149407721Y-79302439D01*
X149576376Y-79268892D01*
X149846620Y-79088320D01*
X151515820Y-77419120D01*
X151576662Y-77328064D01*
X151696392Y-77148875D01*
X151701577Y-77122807D01*
X151795640Y-77105108D01*
X152019592Y-76960999D01*
X152063332Y-76896984D01*
X152138873Y-76972525D01*
X152380715Y-77072700D01*
X152868100Y-77072700D01*
X153032600Y-76908200D01*
X153032600Y-75768700D01*
X153012600Y-75768700D01*
X153012600Y-75560700D01*
X153032600Y-75560700D01*
X153032600Y-75540700D01*
X153240600Y-75540700D01*
X153240600Y-75560700D01*
G36*
X138568932Y-72313815D02*
X138722250Y-72552700D01*
X139977000Y-72552700D01*
X139977000Y-72532700D01*
X140185000Y-72532700D01*
X140185000Y-72552700D01*
X140205000Y-72552700D01*
X140205000Y-72760700D01*
X140185000Y-72760700D01*
X140185000Y-74162209D01*
X140374371Y-74266417D01*
X140300711Y-74376657D01*
X140235399Y-74705000D01*
X140235400Y-74705005D01*
X140235400Y-76303410D01*
X140193400Y-76303410D01*
X139949560Y-76349292D01*
X139725608Y-76493401D01*
X139575367Y-76713286D01*
X139522510Y-76974300D01*
X139522510Y-77424300D01*
X139542017Y-77527971D01*
X139522510Y-77624300D01*
X139522510Y-78074300D01*
X139542017Y-78177971D01*
X139522510Y-78274300D01*
X139522510Y-78724300D01*
X139542017Y-78827971D01*
X139522510Y-78924300D01*
X139522510Y-79374300D01*
X139542017Y-79477971D01*
X139522510Y-79574300D01*
X139522510Y-79600370D01*
X138724620Y-78802480D01*
X138454376Y-78621908D01*
X138293378Y-78589884D01*
X138257208Y-78397660D01*
X138113099Y-78173708D01*
X137917325Y-78039942D01*
X138099992Y-77922399D01*
X138250233Y-77702514D01*
X138303090Y-77441500D01*
X138303090Y-75941500D01*
X138257208Y-75697660D01*
X138113099Y-75473708D01*
X138062865Y-75439385D01*
X138174273Y-75276334D01*
X138227130Y-75015320D01*
X138227130Y-73615320D01*
X138181248Y-73371480D01*
X138113845Y-73266733D01*
X138174273Y-73178294D01*
X138210462Y-72999585D01*
X138568932Y-72999585D01*
X138756927Y-73563729D01*
X139146500Y-74012987D01*
X139678342Y-74278964D01*
X139740806Y-74292183D01*
X139977000Y-74162209D01*
X139977000Y-72760700D01*
X138722250Y-72760700D01*
X138568932Y-72999585D01*
X138210462Y-72999585D01*
X138227130Y-72917280D01*
X138227130Y-72634098D01*
X138579687Y-72281540D01*
X138568932Y-72313815D01*
X138568932Y-72313815D01*
G37*
X138568932Y-72313815D02*
X138722250Y-72552700D01*
X139977000Y-72552700D01*
X139977000Y-72532700D01*
X140185000Y-72532700D01*
X140185000Y-72552700D01*
X140205000Y-72552700D01*
X140205000Y-72760700D01*
X140185000Y-72760700D01*
X140185000Y-74162209D01*
X140374371Y-74266417D01*
X140300711Y-74376657D01*
X140235399Y-74705000D01*
X140235400Y-74705005D01*
X140235400Y-76303410D01*
X140193400Y-76303410D01*
X139949560Y-76349292D01*
X139725608Y-76493401D01*
X139575367Y-76713286D01*
X139522510Y-76974300D01*
X139522510Y-77424300D01*
X139542017Y-77527971D01*
X139522510Y-77624300D01*
X139522510Y-78074300D01*
X139542017Y-78177971D01*
X139522510Y-78274300D01*
X139522510Y-78724300D01*
X139542017Y-78827971D01*
X139522510Y-78924300D01*
X139522510Y-79374300D01*
X139542017Y-79477971D01*
X139522510Y-79574300D01*
X139522510Y-79600370D01*
X138724620Y-78802480D01*
X138454376Y-78621908D01*
X138293378Y-78589884D01*
X138257208Y-78397660D01*
X138113099Y-78173708D01*
X137917325Y-78039942D01*
X138099992Y-77922399D01*
X138250233Y-77702514D01*
X138303090Y-77441500D01*
X138303090Y-75941500D01*
X138257208Y-75697660D01*
X138113099Y-75473708D01*
X138062865Y-75439385D01*
X138174273Y-75276334D01*
X138227130Y-75015320D01*
X138227130Y-73615320D01*
X138181248Y-73371480D01*
X138113845Y-73266733D01*
X138174273Y-73178294D01*
X138210462Y-72999585D01*
X138568932Y-72999585D01*
X138756927Y-73563729D01*
X139146500Y-74012987D01*
X139678342Y-74278964D01*
X139740806Y-74292183D01*
X139977000Y-74162209D01*
X139977000Y-72760700D01*
X138722250Y-72760700D01*
X138568932Y-72999585D01*
X138210462Y-72999585D01*
X138227130Y-72917280D01*
X138227130Y-72634098D01*
X138579687Y-72281540D01*
X138568932Y-72313815D01*
G36*
X159895400Y-75529900D02*
X159915400Y-75529900D01*
X159915400Y-75737900D01*
X159895400Y-75737900D01*
X159895400Y-76877400D01*
X160059900Y-77041900D01*
X160547285Y-77041900D01*
X160697830Y-76979542D01*
X159526272Y-78151100D01*
X158503600Y-78151100D01*
X158317034Y-78188210D01*
X157689900Y-78188210D01*
X157689900Y-77082390D01*
X158180800Y-77082390D01*
X158424640Y-77036508D01*
X158648592Y-76892399D01*
X158687460Y-76835513D01*
X158793673Y-76941725D01*
X159035515Y-77041900D01*
X159522900Y-77041900D01*
X159687400Y-76877400D01*
X159687400Y-75737900D01*
X159667400Y-75737900D01*
X159667400Y-75529900D01*
X159687400Y-75529900D01*
X159687400Y-75509900D01*
X159895400Y-75509900D01*
X159895400Y-75529900D01*
X159895400Y-75529900D01*
G37*
X159895400Y-75529900D02*
X159915400Y-75529900D01*
X159915400Y-75737900D01*
X159895400Y-75737900D01*
X159895400Y-76877400D01*
X160059900Y-77041900D01*
X160547285Y-77041900D01*
X160697830Y-76979542D01*
X159526272Y-78151100D01*
X158503600Y-78151100D01*
X158317034Y-78188210D01*
X157689900Y-78188210D01*
X157689900Y-77082390D01*
X158180800Y-77082390D01*
X158424640Y-77036508D01*
X158648592Y-76892399D01*
X158687460Y-76835513D01*
X158793673Y-76941725D01*
X159035515Y-77041900D01*
X159522900Y-77041900D01*
X159687400Y-76877400D01*
X159687400Y-75737900D01*
X159667400Y-75737900D01*
X159667400Y-75529900D01*
X159687400Y-75529900D01*
X159687400Y-75509900D01*
X159895400Y-75509900D01*
X159895400Y-75529900D01*
G36*
X149743974Y-72107373D02*
X149643800Y-72349216D01*
X149643800Y-72961600D01*
X149808300Y-73126100D01*
X150822800Y-73126100D01*
X150822800Y-73106100D01*
X151030800Y-73106100D01*
X151030800Y-73126100D01*
X151050800Y-73126100D01*
X151050800Y-73334100D01*
X151030800Y-73334100D01*
X151030800Y-73354100D01*
X150822800Y-73354100D01*
X150822800Y-73334100D01*
X149808300Y-73334100D01*
X149643800Y-73498600D01*
X149643800Y-74110984D01*
X149743974Y-74352827D01*
X149868289Y-74477142D01*
X149834008Y-74499201D01*
X149683767Y-74719086D01*
X149630910Y-74980100D01*
X149630910Y-76480100D01*
X149676792Y-76723940D01*
X149746535Y-76832325D01*
X149397600Y-77181260D01*
X149397600Y-73672700D01*
X149369561Y-73531736D01*
X149334192Y-73353924D01*
X149235490Y-73206207D01*
X149235490Y-72105140D01*
X149746207Y-72105140D01*
X149743974Y-72107373D01*
X149743974Y-72107373D01*
G37*
X149743974Y-72107373D02*
X149643800Y-72349216D01*
X149643800Y-72961600D01*
X149808300Y-73126100D01*
X150822800Y-73126100D01*
X150822800Y-73106100D01*
X151030800Y-73106100D01*
X151030800Y-73126100D01*
X151050800Y-73126100D01*
X151050800Y-73334100D01*
X151030800Y-73334100D01*
X151030800Y-73354100D01*
X150822800Y-73354100D01*
X150822800Y-73334100D01*
X149808300Y-73334100D01*
X149643800Y-73498600D01*
X149643800Y-74110984D01*
X149743974Y-74352827D01*
X149868289Y-74477142D01*
X149834008Y-74499201D01*
X149683767Y-74719086D01*
X149630910Y-74980100D01*
X149630910Y-76480100D01*
X149676792Y-76723940D01*
X149746535Y-76832325D01*
X149397600Y-77181260D01*
X149397600Y-73672700D01*
X149369561Y-73531736D01*
X149334192Y-73353924D01*
X149235490Y-73206207D01*
X149235490Y-72105140D01*
X149746207Y-72105140D01*
X149743974Y-72107373D01*
G36*
X155475800Y-73009900D02*
X155495800Y-73009900D01*
X155495800Y-73217900D01*
X155475800Y-73217900D01*
X155475800Y-73237900D01*
X155267800Y-73237900D01*
X155267800Y-73217900D01*
X155247800Y-73217900D01*
X155247800Y-73009900D01*
X155267800Y-73009900D01*
X155267800Y-72989900D01*
X155475800Y-72989900D01*
X155475800Y-73009900D01*
X155475800Y-73009900D01*
G37*
X155475800Y-73009900D02*
X155495800Y-73009900D01*
X155495800Y-73217900D01*
X155475800Y-73217900D01*
X155475800Y-73237900D01*
X155267800Y-73237900D01*
X155267800Y-73217900D01*
X155247800Y-73217900D01*
X155247800Y-73009900D01*
X155267800Y-73009900D01*
X155267800Y-72989900D01*
X155475800Y-72989900D01*
X155475800Y-73009900D01*
M02*
